<svg width="370" height="214" viewBox="0 0 370 214" version="1.1" xmlns="http://www.w3.org/2000/svg" xmlns:xlink="http://www.w3.org/1999/xlink" xmlns:figma="http://www.figma.com/figma/ns">
<title>Decoration</title>
<desc>Created using Figma</desc>
<g id="Canvas" transform="translate(4490 1910)" figma:type="canvas">
<g id="Decoration" style="mix-blend-mode:normal;" figma:type="frame">
<g id="OONI Logo" style="mix-blend-mode:normal;" figma:type="frame">
<g id="layer3" style="mix-blend-mode:normal;" figma:type="frame">
<g id="path8462" style="mix-blend-mode:normal;" figma:type="vector">
<use xlink:href="#path0_fill" transform="translate(-4392 -1896)" fill="#8DD8F8" style="mix-blend-mode:normal;"/>
</g>
<g id="g9050" style="mix-blend-mode:normal;" figma:type="frame">
<g id="circle4375" style="mix-blend-mode:normal;" figma:type="vector">
<use xlink:href="#path1_fill" transform="translate(-4363.92 -1880.45)" fill="#0588CB" style="mix-blend-mode:normal;"/>
</g>
<g id="path3571" style="mix-blend-mode:normal;" figma:type="vector">
<use xlink:href="#path2_fill" transform="translate(-4316.93 -1859.28)" fill="#FFFFFF" style="mix-blend-mode:normal;"/>
</g>
<g id="circle4373" style="mix-blend-mode:normal;" figma:type="vector">
<use xlink:href="#path3_fill" transform="translate(-4305.42 -1842.88)" fill="#0062B0" style="mix-blend-mode:normal;"/>
</g>
</g>
</g>
</g>
<g id="Dazzle" style="mix-blend-mode:normal;" figma:type="vector">
<use xlink:href="#path4_stroke" transform="translate(-4490 -1826.27)" fill="#CC0000" style="mix-blend-mode:normal;"/>
</g>
<g id="Dazzle" style="mix-blend-mode:normal;" figma:type="vector">
<use xlink:href="#path5_stroke" transform="translate(-4412 -1910)" fill="#FFA500" style="mix-blend-mode:normal;"/>
</g>
<g id="Dazzle" style="mix-blend-mode:normal;" figma:type="vector">
<use xlink:href="#path6_stroke" transform="translate(-4434 -1742.25)" fill="#B83564" style="mix-blend-mode:normal;"/>
</g>
<g id="Dazzle" style="mix-blend-mode:normal;" figma:type="vector">
<use xlink:href="#path6_stroke" transform="translate(-4180 -1757.25)" fill="#046799" style="mix-blend-mode:normal;"/>
</g>
<g id="Dazzle" style="mix-blend-mode:normal;" figma:type="vector">
<use xlink:href="#path7_stroke" transform="translate(-4183 -1884.28)" fill="#4FD156" style="mix-blend-mode:normal;"/>
</g>
<g id="Dazzle" style="mix-blend-mode:normal;" figma:type="vector">
<use xlink:href="#path4_stroke" transform="translate(-4140 -1811)" fill="#FFFF00" style="mix-blend-mode:normal;"/>
</g>
</g>
</g>
<defs>
<path id="path0_fill" d="M 100 200C 155.228 200 200 155.228 200 100C 200 44.7715 155.228 0 100 0C 44.7715 0 0 44.7715 0 100C 0 155.228 44.7715 200 100 200Z"/>
<path id="path1_fill" fill-rule="evenodd" d="M 44.7094 61.696C 51.7351 68.5551 53.3228 74.9289 50.4423 80.6758C 47.3254 86.8941 40.1403 90.2548 28.3315 90.3543C 18.1529 90.44 15.4006 85.3852 13.336 82.4802C 9.37741 76.9104 11.4276 70.1526 15.1404 65.8136C 19.6505 60.5429 22.9802 60.0881 26.6428 62.0601C 28.6072 63.1177 31.5118 65.5839 31.5774 70.0787C 31.6165 72.7558 29.8058 76.9028 29.8058 77.4277C 29.8058 77.9527 30.2323 78.2808 30.6916 78.0839C 31.1509 77.8871 34.8384 75.936 36.9252 73.2611C 38.7924 70.8677 40.7966 62.1718 40.4029 61.0564C 40.0092 59.9409 37.1723 57.6207 36.9754 56.374C 36.8584 55.6329 36.7717 54.6862 36.4228 53.9092C 36.1848 53.3792 35.5323 52.8907 35.1864 52.6246C 34.3333 51.9684 32.1024 52.7886 31.1837 51.6403C 30.3963 50.6561 30.0682 48.5892 29.0184 48.3267C 28.5416 48.2075 27.6246 48.0149 26.7853 48.1862C 25.5799 48.4324 24.674 49.1587 23.7362 49.0485C 22.4264 48.8946 21.3084 46.8175 19.5368 46.9487C 17.7748 47.0793 15.5341 50.0984 13.1063 52.723C 10.6785 55.3477 6.36841 58.6626 3.3294 64.0091C 1.12651 67.8847 -0.673222 72.4737 0.245413 78.9697C 1.16405 85.4658 2.76419 89.8442 7.9882 94.6194C 13.3616 99.5311 17.6995 100.951 20.9147 102.067C 24.1299 103.182 26.3601 104.223 29.8386 104.331C 31.0371 104.368 33.5892 104.447 34.4359 104.356C 36.5789 104.126 36.1429 103.183 38.1391 102.854C 45.9147 101.575 51.4501 97.5161 54.815 94.0892C 55.6716 93.2169 57.9175 90.8193 58.3365 90.4052C 58.4418 91.0021 58.4737 92.9191 58.4056 93.4173C 57.9389 96.8303 55.8089 98.7407 52.3964 100.561C 47.5246 103.159 40.4502 106.978 35.5995 110.374C 31.1121 113.515 27.1551 116.568 25.7632 121.579C 24.3712 126.59 24.6503 129.466 26.1815 132.923C 27.5781 136.076 30.1252 139.442 34.3938 141.901C 37.9245 143.935 41.0143 145.724 44.4199 147.473C 46.7649 148.677 50.8647 150.716 50.4935 154.985C 50.1171 159.313 47.3153 161.603 45.4134 162.432C 42.1466 163.857 37.6705 164.229 37.4788 164.381C 37.1414 164.65 41.3758 168.229 44.6239 168.209C 48.1727 168.186 49.4308 167.947 52.7204 166.794C 55.5809 165.791 56.827 163.291 57.291 163.198C 57.755 163.105 58.4348 163.16 59.0545 162.71C 59.6589 162.271 61.5825 160.784 61.8145 159.903C 62.0465 159.021 62.0931 157.537 62.3251 156.748C 62.557 155.959 63.4854 153.292 63.5318 151.854C 63.5782 150.415 63.9502 147.121 62.6613 145.23C 61.5929 143.663 62.1508 142.84 61.2578 141.994C 61.1092 141.853 60.3594 140.86 59.6737 140.603C 58.785 140.271 58.3214 140.561 57.6857 140.208C 56.669 139.643 55.4551 135.835 53.9887 135.729C 53.4537 135.691 52.831 135.723 52.2908 135.853C 51.0847 136.145 45.8048 136.281 44.8566 135.916C 43.3893 135.351 38.6039 132.298 39.0106 127.889C 39.36 124.102 42.0578 121.525 45.7148 120.186C 48.9802 118.991 50.1221 119.096 52.3493 118.029C 54.5451 116.977 56.0851 115.64 57.7555 114.759C 59.4258 113.877 61.6869 112.822 63.4036 111.383C 64.3825 110.563 65.3634 109.633 66.2908 108.468C 67.0843 107.471 68.6014 104.767 70.2206 103.426C 72.4351 106.813 74.5999 109.795 76.1979 111.649C 80.2577 116.358 85.8023 119.223 88.4006 120.847C 90.9988 122.47 96.9594 126.939 99.5134 130.511C 102.251 134.339 100.998 139.581 99.4898 141.576C 98.1842 143.304 95.221 145.544 91.138 145.451C 86.7716 145.352 82.5874 143.56 80.0262 140.254C 77.4743 136.959 76.4803 130.774 78.6575 129.142C 80.9983 127.387 83.2926 128.223 84.7353 128.399C 85.8658 128.537 86.9396 127.935 87.1252 127.007C 87.3107 126.079 87.0092 124.965 85.7564 123.991C 85.0916 123.474 83.8686 122.617 82.1813 122.638C 81.2563 122.649 79.513 123.097 77.1493 123.015C 74.639 122.928 72.1672 123.196 69.8977 125.295C 68.03 127.023 66.9588 128.387 66.26 130.551C 65.9941 131.374 66.3163 133.144 66.2057 134.198C 66.094 135.261 65.655 136.094 65.6469 136.913C 65.6348 138.13 65.8331 139.62 66.1103 141.074C 66.4191 142.693 67.0078 144.563 67.7364 146.219C 68.0348 146.897 68.2746 147.826 68.6571 148.237C 69.1223 148.738 70.0116 149.256 70.8542 150.078C 72.4496 151.634 74.2997 153.643 75.757 154.22C 77.5679 154.937 81.2323 153.686 82.2531 154.011C 83.2739 154.335 84.5839 155.934 86.1614 155.888C 87.7389 155.842 97.4077 155.387 100.743 154.057C 104.909 152.394 112.097 147.814 113.51 141.439C 115.253 133.579 111.951 128.201 108.636 124.267C 104.544 119.41 96.8673 113.136 91.0755 108.98C 87.7576 106.6 86.4995 104.789 85.2161 102.628C 84.2415 100.986 83.2085 98.2122 83.7266 95.6673C 86.1135 96.9172 89.5229 100.809 90.5218 102.052C 91.8065 103.651 93.4446 104.624 94.7111 105.246C 95.8326 105.797 97.2323 105.481 98.2995 105.667C 99.3666 105.852 98.6025 106.726 100.505 107.376C 102.407 108.025 110.818 109.58 112.842 109.509C 113.668 109.48 114.777 108.839 116.085 108.429C 117.337 108.036 119.48 107.86 125.428 105.536C 133.587 102.349 137.015 97.1516 139.771 90.9366C 142.528 84.7215 140.662 76.7865 139.054 73.18C 137.446 69.5736 134.289 64.7875 131.041 59.8229C 127.793 54.8583 123.723 49.7898 125.539 39.615C 127.354 29.4402 135.12 26.3187 136.224 24.4493C 137.108 22.9524 134.48 21.4376 133.825 21.1264C 133.03 20.7485 132.165 20.4554 130.077 20.3626C 129.947 20.3568 129.821 20.3562 129.698 20.3605C 127.858 20.4273 126.878 21.5815 126.12 21.8359C 125.298 22.1114 121.695 21.893 121.197 21.9968C 120.651 22.1105 119.693 23.2635 119.489 23.5583C 119.13 24.0746 119.406 24.2044 118.896 25.2715C 118.386 26.3387 114.745 29.3753 113.748 31.2683C 113.214 32.2822 113.813 34.3793 113.164 35.7712C 112.514 37.1632 110.565 37.095 110.15 38.6215C 109.845 39.7444 110.428 43.3511 109.937 45.1114C 109.428 46.935 108.372 46.1129 108.306 47.9729C 108.213 50.5944 112.848 54.7728 113.636 55.9792C 114.425 57.1855 114.743 57.8961 115.718 60.1007C 116.805 62.5608 118.27 64.094 119.373 65.3439C 120.476 66.5938 123.509 68.5088 124.293 69.8489C 124.729 70.5942 124.255 72.017 124.549 72.9503C 124.828 73.8319 125.624 74.6041 126.877 76.4137C 128.129 78.2232 127.709 82.9322 126.576 85.7784C 125.443 88.6246 122.356 92.3967 117.075 93.879C 111.794 95.3614 98.5344 94.148 93.2244 80.2164C 90.7818 73.8078 91.9037 66.3107 97.6092 60.4126C 103.315 54.5146 107.57 45.4937 107.584 36.0973C 107.584 16.1613 90.6629 -3.06473e-05 70.4369 8.48771e-07C 50.211 3.75942e-05 33.8147 16.1613 33.8145 36.0974C 33.8227 45.6644 37.6836 54.8369 44.7094 61.696Z"/>
<path id="path2_fill" d="M 17.9387 35.8773C 27.8459 35.8773 35.8773 27.8459 35.8773 17.9387C 35.8773 8.03141 27.8459 2.09506e-06 17.9387 2.09506e-06C 8.03141 2.09506e-06 3.72427e-06 8.03141 3.72427e-06 17.9387C 3.72427e-06 27.8459 8.03141 35.8773 17.9387 35.8773Z"/>
<path id="path3_fill" d="M 4.10623 8.21246C 6.37404 8.21246 8.21246 6.37404 8.21246 4.10623C 8.21246 1.83842 6.37404 0 4.10623 0C 1.83842 0 -4.92575e-06 1.83842 -4.92575e-06 4.10623C -4.92575e-06 6.37404 1.83842 8.21246 4.10623 8.21246Z"/>
<path id="path4_stroke" d="M 8.5 12.6316L 8.5 20L 11.5 20L 11.5 12.6316L 8.5 12.6316ZM 8.5 0L 8.5 7.36842L 11.5 7.36842L 11.5 0L 8.5 0ZM 20 8.5L 12.6316 8.5L 12.6316 11.5L 20 11.5L 20 8.5ZM 7.36842 8.5L 0 8.5L 0 11.5L 7.36842 11.5L 7.36842 8.5Z"/>
<path id="path5_stroke" d="M 18 25.2632L 18 40L 22 40L 22 25.2632L 18 25.2632ZM 18 0L 18 14.7368L 22 14.7368L 22 0L 18 0ZM 40 18L 25.2632 18L 25.2632 22L 40 22L 40 18ZM 14.7368 18L 0 18L 0 22L 14.7368 22L 14.7368 18Z"/>
<path id="path6_stroke" d="M 13.5 18.9474L 13.5 30L 16.5 30L 16.5 18.9474L 13.5 18.9474ZM 13.5 0L 13.5 11.0526L 16.5 11.0526L 16.5 0L 13.5 0ZM 30 13.5L 18.9474 13.5L 18.9474 16.5L 30 16.5L 30 13.5ZM 11.0526 13.5L 0 13.5L 0 16.5L 11.0526 16.5L 11.0526 13.5Z"/>
<path id="path7_stroke" d="M 11 15.7895L 11 25L 14 25L 14 15.7895L 11 15.7895ZM 11 0L 11 9.21053L 14 9.21053L 14 0L 11 0ZM 25 11L 15.7895 11L 15.7895 14L 25 14L 25 11ZM 9.21053 11L 0 11L 0 14L 9.21053 14L 9.21053 11Z"/>
</defs>
</svg>
